<?xml version="1.0" standalone="no"?>
<!DOCTYPE svg PUBLIC "-//W3C//DTD SVG 20010904//EN"
 "http://www.w3.org/TR/2001/REC-SVG-20010904/DTD/svg10.dtd">
<svg version="1.0" xmlns="http://www.w3.org/2000/svg"
 width="700.000000pt" height="700.000000pt" viewBox="0 0 700.000000 700.000000"
 preserveAspectRatio="xMidYMid meet">
<metadata>
Created by potrace 1.14, written by Peter Selinger 2001-2017
</metadata>
<g transform="translate(0.000000,700.000000) scale(0.100000,-0.100000)"
fill="#000000" stroke="none">
<path d="M1117 4924 c-1 -1 -42 -4 -90 -8 -374 -29 -658 -230 -750 -531 -37
-120 -44 -320 -17 -443 7 -30 13 -59 14 -65 5 -23 18 -53 59 -137 60 -123 158
-219 287 -282 52 -26 127 -56 165 -67 75 -21 113 -29 225 -46 25 -4 68 -11 95
-16 28 -5 66 -12 85 -15 159 -22 300 -75 358 -134 95 -98 113 -293 40 -438
-52 -104 -136 -164 -273 -196 -90 -20 -282 -16 -380 9 -150 38 -304 127 -421
244 l-71 72 -151 -157 c-84 -87 -152 -160 -152 -163 0 -8 116 -128 151 -156
166 -137 361 -223 589 -260 102 -16 353 -23 427 -11 15 2 48 7 73 11 357 53
618 250 719 545 48 139 59 358 26 497 -33 133 -117 276 -206 350 -19 15 -43
36 -53 45 -27 24 -168 93 -241 117 -55 18 -203 51 -295 66 -19 3 -46 7 -60 10
-14 3 -41 7 -60 10 -19 3 -42 8 -50 10 -8 2 -31 7 -50 10 -50 9 -176 52 -208
72 -43 26 -92 75 -110 108 -49 94 -48 254 3 354 39 78 106 128 210 159 60 18
90 21 220 18 131 -3 160 -7 228 -30 130 -44 222 -100 314 -193 24 -24 46 -43
50 -43 5 0 111 110 245 254 l54 58 -30 36 c-45 50 -166 146 -239 186 -107 60
-234 103 -386 131 -62 12 -334 27 -344 19z"/>
<path d="M2619 4852 c0 -15 -1 -624 -2 -1354 -1 -878 1 -1329 8 -1331 15 -6
986 1 1015 6 14 3 39 8 55 11 17 3 41 8 54 11 200 40 382 159 512 335 70 95
162 305 184 422 2 11 6 27 9 36 7 22 14 66 22 122 3 25 7 52 9 60 18 71 25
428 12 590 -31 378 -144 675 -329 859 -132 132 -278 205 -483 240 -85 15 -172
18 -582 19 l-483 1 -1 -27z m975 -406 c218 -60 341 -240 373 -541 14 -133 6
-772 -11 -853 -32 -151 -84 -268 -151 -337 -58 -61 -165 -113 -269 -131 -54
-9 -407 -11 -412 -2 -4 6 -6 987 -4 1784 l0 101 208 -3 c154 -1 222 -6 266
-18z"/>
<path d="M4950 3521 l0 -1357 255 0 255 0 0 408 0 408 126 168 c70 92 134 175
144 185 15 17 19 12 73 -85 32 -57 70 -125 85 -153 16 -27 42 -75 59 -105 100
-182 409 -733 435 -775 l30 -51 281 2 c155 0 283 2 284 3 3 1 -12 29 -240 431
-104 184 -199 351 -210 370 -10 19 -37 65 -58 102 -22 36 -39 71 -39 77 0 6
-4 11 -10 11 -5 0 -10 4 -10 8 0 8 -263 478 -296 529 -8 12 -14 27 -14 34 0 6
51 79 112 163 267 358 680 912 693 928 7 9 18 25 24 36 11 20 8 20 -274 20
l-285 0 -83 -111 c-150 -203 -298 -402 -313 -422 -8 -11 -51 -70 -97 -132 -45
-61 -99 -135 -120 -165 -84 -118 -135 -192 -201 -288 -38 -55 -76 -100 -83
-100 -11 0 -13 111 -13 610 l0 609 -255 -1 -255 0 0 -1357z"/>
</g>
</svg>
